<svg height="512pt" viewBox="-46 0 512 512" width="512pt" xmlns="http://www.w3.org/2000/svg"><path d="m210 0c-115.792969 0-210 94.207031-210 210 0 93.359375 61.519531 175.210938 150.441406 201.425781l46.140625 92.28125c2.539063 5.082031 7.734375 8.292969 13.417969 8.292969 5.679688 0 10.875-3.210938 13.414062-8.292969l46.140626-92.277343c88.925781-26.214844 150.445312-108.066407 150.445312-201.429688 0-115.792969-94.207031-210-210-210zm45.355469 384.238281c-4.195313 1.085938-7.710938 3.933594-9.648438 7.808594l-35.707031 71.414063-35.707031-71.414063c-1.9375-3.875-5.453125-6.722656-9.648438-7.8125-79.277343-20.570313-134.644531-92.21875-134.644531-174.234375 0-99.253906 80.746094-180 180-180s180 80.746094 180 180c0 82.015625-55.367188 153.664062-134.644531 174.238281zm0 0"/><path d="m210 75c-74.4375 0-135 60.5625-135 135s60.5625 135 135 135 135-60.5625 135-135-60.5625-135-135-135zm-44.890625 229.90625c1.546875-23.421875 21.082031-42.011719 44.890625-42.011719s43.34375 18.589844 44.890625 42.011719c-13.621094 6.46875-28.839844 10.09375-44.890625 10.09375s-31.269531-3.625-44.890625-10.09375zm44.890625-86.40625c-8.269531 0-15-6.730469-15-15s6.730469-15 15-15 15 6.730469 15 15-6.730469 15-15 15zm71.867188 67.976562c-6.515626-21.816406-22.703126-39.484374-43.570313-48.019531 10.179687-8.257812 16.703125-20.855469 16.703125-34.957031 0-24.8125-20.1875-45-45-45s-45 20.1875-45 45c0 14.101562 6.523438 26.699219 16.703125 34.957031-20.867187 8.535157-37.054687 26.203125-43.570313 48.019531-20.382812-19.164062-33.132812-46.359374-33.132812-76.476562 0-57.898438 47.101562-105 105-105s105 47.101562 105 105c0 30.117188-12.75 57.3125-33.132812 76.476562zm0 0"/></svg>